<svg xmlns="http://www.w3.org/2000/svg" viewBox="0 0 420 100" fill="none">
  <!-- Network icon -->
  <g stroke="#22c55e" stroke-width="2">
    <!-- Horizontal connections -->
    <line x1="18" y1="20" x2="38" y2="20"/>
    <line x1="18" y1="40" x2="38" y2="40"/>
    <line x1="18" y1="60" x2="38" y2="60"/>
    <line x1="18" y1="80" x2="38" y2="80"/>
    <line x1="42" y1="20" x2="58" y2="20"/>
    <line x1="42" y1="40" x2="58" y2="40"/>
    <line x1="42" y1="60" x2="58" y2="60"/>
    <line x1="42" y1="80" x2="58" y2="80"/>
    <line x1="62" y1="20" x2="82" y2="20"/>
    <line x1="62" y1="40" x2="82" y2="40"/>
    <line x1="62" y1="60" x2="82" y2="60"/>
    <line x1="62" y1="80" x2="82" y2="80"/>
    <!-- Vertical connections -->
    <line x1="18" y1="24" x2="18" y2="36"/>
    <line x1="40" y1="24" x2="40" y2="36"/>
    <line x1="60" y1="24" x2="60" y2="36"/>
    <line x1="82" y1="24" x2="82" y2="36"/>
    <line x1="18" y1="44" x2="18" y2="56"/>
    <line x1="40" y1="44" x2="40" y2="56"/>
    <line x1="60" y1="44" x2="60" y2="56"/>
    <line x1="82" y1="44" x2="82" y2="56"/>
    <line x1="18" y1="64" x2="18" y2="76"/>
    <line x1="40" y1="64" x2="40" y2="76"/>
    <line x1="60" y1="64" x2="60" y2="76"/>
    <line x1="82" y1="64" x2="82" y2="76"/>
  </g>
  <!-- Nodes -->
  <g fill="#22c55e">
    <!-- Row 1 -->
    <circle cx="18" cy="20" r="5"/>
    <circle cx="40" cy="20" r="4"/>
    <circle cx="60" cy="20" r="5"/>
    <circle cx="82" cy="20" r="4"/>
    <!-- Row 2 -->
    <circle cx="18" cy="40" r="4"/>
    <circle cx="40" cy="40" r="6"/>
    <circle cx="60" cy="40" r="4"/>
    <circle cx="82" cy="40" r="5"/>
    <!-- Row 3 -->
    <circle cx="18" cy="60" r="5"/>
    <circle cx="40" cy="60" r="4"/>
    <circle cx="60" cy="60" r="6"/>
    <circle cx="82" cy="60" r="4"/>
    <!-- Row 4 -->
    <circle cx="18" cy="80" r="4"/>
    <circle cx="40" cy="80" r="5"/>
    <circle cx="60" cy="80" r="4"/>
    <circle cx="82" cy="80" r="5"/>
  </g>
  <!-- Text -->
  <text x="105" y="38" fill="white" font-family="system-ui, -apple-system, 'Segoe UI', sans-serif" font-size="20" font-weight="400" letter-spacing="6">GRUPO</text>
  <text x="105" y="76" fill="white" font-family="system-ui, -apple-system, 'Segoe UI', sans-serif" font-size="36" font-weight="700" letter-spacing="3">INTELSIS</text>
</svg>
